<svg xmlns="http://www.w3.org/2000/svg" viewBox="0 0 1600 640" role="img" aria-labelledby="title desc"><title id="title">A-Wiki hero banner</title><desc id="desc">A dark professional banner for A-Wiki showing a neural-spine mark, the product name, tagline, and the Brain, Conductor, Agents flow.</desc><defs><linearGradient id="bg" x1="0" y1="0" x2="1" y2="1"><stop offset="0" stop-color="#050b14"/><stop offset="0.55" stop-color="#0a1322"/><stop offset="1" stop-color="#111827"/></linearGradient><linearGradient id="accent" x1="0" y1="0" x2="1" y2="0"><stop offset="0" stop-color="#5eead4"/><stop offset="0.48" stop-color="#38bdf8"/><stop offset="1" stop-color="#818cf8"/></linearGradient><pattern id="grid" width="44" height="44" patternUnits="userSpaceOnUse"><path d="M44 0H0V44" fill="none" stroke="#94a3b8" stroke-opacity=".06"/></pattern><filter id="blur" x="-40%" y="-40%" width="180%" height="180%"><feGaussianBlur stdDeviation="36"/></filter></defs><rect width="1600" height="640" rx="36" fill="url(#bg)"/><rect width="1600" height="640" rx="36" fill="url(#grid)"/><circle cx="290" cy="314" r="210" fill="#38bdf8" opacity=".08" filter="url(#blur)"/><circle cx="290" cy="314" r="154" fill="#07111f" stroke="#27364d" stroke-width="2"/><path d="M205 410 275 218c4-10 13-16 24-16s20 6 24 16l70 192" fill="none" stroke="url(#accent)" stroke-width="24" stroke-linecap="round"/><path d="M237 342h91" fill="none" stroke="#e0f2fe" stroke-width="14" stroke-linecap="round"/><path d="M299 202v208" fill="none" stroke="url(#accent)" stroke-width="8" stroke-linecap="round"/><g fill="#07111f" stroke="#67e8f9" stroke-width="6"><circle cx="299" cy="202" r="14"/><circle cx="299" cy="274" r="10"/><circle cx="299" cy="342" r="10"/><circle cx="299" cy="410" r="14"/></g><text x="520" y="212" fill="#f8fafc" font-family="Inter,Segoe UI,Arial,sans-serif" font-size="108" font-weight="760" letter-spacing="-3">A-Wiki</text><rect x="522" y="242" width="276" height="7" rx="3.5" fill="url(#accent)"/><text x="520" y="318" fill="#dbeafe" font-family="Inter,Segoe UI,Arial,sans-serif" font-size="42" font-weight="650">The AI Operating System That Ships</text><text x="520" y="370" fill="#94a3b8" font-family="Inter,Segoe UI,Arial,sans-serif" font-size="25">Persistent knowledge · Iron-Law discipline · Multi-agent coordination</text><g font-family="Inter,Segoe UI,Arial,sans-serif" font-size="22" font-weight="700"><rect x="520" y="430" width="190" height="62" rx="18" fill="#0f1d2f" stroke="#2dd4bf" stroke-opacity=".55"/><text x="567" y="470" fill="#99f6e4">BRAIN</text><path d="M724 461h62" stroke="#475569" stroke-width="3"/><path d="m780 454 12 7-12 7" fill="none" stroke="#64748b" stroke-width="3"/><rect x="810" y="430" width="240" height="62" rx="18" fill="#0f1d2f" stroke="#38bdf8" stroke-opacity=".55"/><text x="853" y="470" fill="#bae6fd">CONDUCTOR</text><path d="M1064 461h62" stroke="#475569" stroke-width="3"/><path d="m1120 454 12 7-12 7" fill="none" stroke="#64748b" stroke-width="3"/><rect x="1150" y="430" width="188" height="62" rx="18" fill="#0f1d2f" stroke="#818cf8" stroke-opacity=".55"/><text x="1192" y="470" fill="#c7d2fe">AGENTS</text></g><text x="520" y="548" fill="#64748b" font-family="ui-monospace,SFMono-Regular,Menlo,Consolas,monospace" font-size="18">knowledge → policy → orchestration → verified execution</text></svg>